<?xml version="1.0" encoding="UTF-8"?>
<svg width="120" height="120"
     viewBox="0 0 120 120"
     xmlns="http://www.w3.org/2000/svg">
  <defs>
    <!-- Main gradient -->
    <linearGradient id="mainGrad" x1="0%" y1="0%" x2="100%" y2="100%">
      <stop offset="0%" stop-color="#F6AD55"/>
      <stop offset="100%" stop-color="#ED8936"/>
    </linearGradient>
    
    <!-- Inner glow gradient -->
    <radialGradient id="innerGlow" cx="50%" cy="50%" r="50%" fx="50%" fy="50%">
      <stop offset="0%" stop-color="#FBD38D" stop-opacity="0.8"/>
      <stop offset="100%" stop-color="#F6AD55" stop-opacity="0"/>
    </radialGradient>
  </defs>

  <!-- Background circle with main gradient -->
  <circle cx="60" cy="60" r="58" fill="url(#mainGrad)"/>
  
  <!-- Inner glow effect -->
  <circle cx="60" cy="60" r="45" fill="url(#innerGlow)"/>
  
  <!-- Mindfulness symbol (simplified lotus) -->
  <g transform="translate(60, 60) scale(0.8)">
    <!-- Center dot -->
    <circle cx="0" cy="0" r="8" fill="#FFFFFF" opacity="0.9"/>
    
    <!-- Lotus petals -->
    <path d="M0,-25 C5,-20 10,-20 15,-25 C10,-30 5,-30 0,-25" 
          fill="#FFFFFF" opacity="0.7" transform="rotate(0)"/>
    <path d="M0,-25 C5,-20 10,-20 15,-25 C10,-30 5,-30 0,-25" 
          fill="#FFFFFF" opacity="0.7" transform="rotate(72)"/>
    <path d="M0,-25 C5,-20 10,-20 15,-25 C10,-30 5,-30 0,-25" 
          fill="#FFFFFF" opacity="0.7" transform="rotate(144)"/>
    <path d="M0,-25 C5,-20 10,-20 15,-25 C10,-30 5,-30 0,-25" 
          fill="#FFFFFF" opacity="0.7" transform="rotate(216)"/>
    <path d="M0,-25 C5,-20 10,-20 15,-25 C10,-30 5,-30 0,-25" 
          fill="#FFFFFF" opacity="0.7" transform="rotate(288)"/>
  </g>
</svg>
